{"accessors":[{"bufferView":0,"componentType":5126,"count":36,"max":[10.225540161132813,0.5851907730102539,6.179443359375],"min":[-10.225540161132813,-0.5851907730102539,-6.179443359375],"normalized":false,"type":"VEC3"},{"bufferView":1,"componentType":5126,"count":36,"max":[0.0,0.0,7.630093023180962e-05,-1.0],"min":[-1.0,-1.0,-1.0,-1.0],"normalized":false,"type":"VEC4"},{"bufferView":2,"componentType":5126,"count":36,"max":[1.0,1.0,1.0],"min":[-1.0,-1.0,-1.0],"normalized":false,"type":"VEC3"},{"bufferView":3,"componentType":5126,"count":36,"max":[1.0,1.0],"min":[0.0,0.0],"normalized":false,"type":"VEC2"},{"bufferView":4,"componentType":5121,"count":36,"max":[35],"min":[0],"normalized":false,"type":"SCALAR"},{"bufferView":5,"componentType":5126,"count":36,"max":[9.050689697265625,0.18010622262954712,3.35931396484375],"min":[-9.050689697265625,-0.18010622262954712,-3.35931396484375],"normalized":false,"type":"VEC3"},{"bufferView":6,"componentType":5126,"count":1572,"max":[17.00543785095215,13.871040344238281,-5.750308990478516],"min":[-2.9614429473876953,0.43707275390625,-20.521867752075195],"normalized":false,"type":"VEC3"},{"bufferView":7,"componentType":5126,"count":1572,"max":[0.00012208521366119385,0.9779903888702393,1.0,1.0],"min":[-1.0,-1.0,-1.0,-1.0],"normalized":false,"type":"VEC4"},{"bufferView":8,"componentType":5126,"count":1572,"max":[1.0,1.0,1.0],"min":[-1.0,-1.0,-1.0],"normalized":false,"type":"VEC3"},{"bufferView":9,"componentType":5126,"count":1572,"max":[1.0,1.0],"min":[0.0,0.0],"normalized":false,"type":"VEC2"},{"bufferView":10,"componentType":5123,"count":1572,"max":[1571],"min":[0],"normalized":false,"type":"SCALAR"}],"asset":{"generator":"Godot Engine v4.6.1.stable.official@14d19694e0c88a3f9e82d899a0400f27a24c176e","version":"2.0"},"bufferViews":[{"buffer":0,"byteLength":432,"byteStride":12,"target":34962},{"buffer":0,"byteLength":576,"byteOffset":432,"byteStride":16,"target":34962},{"buffer":0,"byteLength":432,"byteOffset":1008,"byteStride":12,"target":34962},{"buffer":0,"byteLength":288,"byteOffset":1440,"byteStride":8,"target":34962},{"buffer":0,"byteLength":36,"byteOffset":1728,"target":34963},{"buffer":0,"byteLength":432,"byteOffset":1764,"byteStride":12,"target":34962},{"buffer":0,"byteLength":18864,"byteOffset":2196,"byteStride":12,"target":34962},{"buffer":0,"byteLength":25152,"byteOffset":21060,"byteStride":16,"target":34962},{"buffer":0,"byteLength":18864,"byteOffset":46212,"byteStride":12,"target":34962},{"buffer":0,"byteLength":12576,"byteOffset":65076,"byteStride":8,"target":34962},{"buffer":0,"byteLength":3144,"byteOffset":77652,"target":34963}],"buffers":[{"byteLength":80796,"uri":"pharmacyGreybox0.bin"}],"extensionsUsed":["GODOT_single_root"],"materials":[{},{},{}],"meshes":[{"name":"CSGBox3D22","primitives":[{"attributes":{"NORMAL":2,"POSITION":0,"TANGENT":1,"TEXCOORD_0":3},"indices":4,"material":0,"mode":4}]},{"name":"CSGBox3D32","primitives":[{"attributes":{"NORMAL":2,"POSITION":5,"TANGENT":1,"TEXCOORD_0":3},"indices":4,"material":1,"mode":4}]},{"name":"CSGCombiner3D22","primitives":[{"attributes":{"NORMAL":8,"POSITION":6,"TANGENT":7,"TEXCOORD_0":9},"indices":10,"material":2,"mode":4}]}],"nodes":[{"children":[1,2,3],"name":"Greybox"},{"mesh":0,"name":"CSGBox3D22","translation":[7.30046272277832,0.0851907730102539,-14.333220481872559]},{"mesh":1,"name":"CSGBox3D32","translation":[8.475313186645508,0.7818446755409241,-12.221831321716309]},{"children":[4,5,6,7,8,9,10,11,12,13,14,15,16,17,18,19,20,21,22,23,24,25,26,27,28,29,30,31],"mesh":2,"name":"CSGCombiner3D22"},{"name":"CSGBox3D33","translation":[6.231443405151367,2.8391966819763184,-14.572585105895996]},{"name":"CSGBox3D4","translation":[13.245471000671387,2.554481029510498,-11.119967460632324]},{"name":"CSGBox3D5","translation":[7.852907180786133,2.550637722015381,-11.119967460632324]},{"name":"CSGBox3D6","translation":[1.7867605686187744,2.5455069541931152,-11.119967460632324]},{"name":"CSGBox3D19","translation":[-1.7414718866348267,2.5455069541931152,-11.119967460632324]},{"name":"CSGBox3D","translation":[7.723482131958008,2.626270294189453,-9.195300102233887]},{"name":"CSGBox3D23","translation":[7.160057544708252,4.382551193237305,-9.040190696716309]},{"name":"CSGBox3D7","translation":[1.726606845855713,4.154782772064209,-8.769171714782715]},{"name":"CSGBox3D20","translation":[-1.7317166328430176,3.297593116760254,-8.769171714782715]},{"name":"CSGBox3D8","translation":[13.249853134155273,3.9726271629333496,-8.763233184814453]},{"name":"CSGBox3D9","translation":[13.249853134155273,4.5279221534729,-8.485095977783203]},{"name":"CSGBox3D15","translation":[14.339345932006836,5.757803916931152,-13.756256103515625]},{"name":"CSGBox3D16","translation":[4.908090591430664,5.754874229431152,-14.088419914245605]},{"name":"CSGBox3D222","translation":[7.080951690673828,8.261279106140137,-14.77079963684082]},{"name":"CSGBox3D24","translation":[-1.7111563682556152,8.261279106140137,-14.77079963684082]},{"name":"CSGBox3D26","translation":[-1.74420166015625,8.261279106140137,-13.110109329223633]},{"name":"CSGBox3D27","translation":[-1.74420166015625,7.3982343673706055,-9.231424331665039]},{"name":"CSGBox3D232","translation":[6.946794509887695,11.898685455322266,-13.900384902954102]},{"name":"CSGBox3D28","translation":[1.6426947116851807,11.886224746704102,-7.693489074707031]},{"name":"CSGBox3D29","translation":[9.809118270874023,11.886224746704102,-7.693489074707031]},{"name":"CSGBox3D17","rotation":[0.050732385367155075,0.0,0.0,0.9987123012542725],"translation":[7.9326043128967285,6.269357681274414,-7.52675724029541]},{"name":"CSGBox3D21","rotation":[0.050732385367155075,0.0,0.0,0.9987123012542725],"translation":[1.8072240352630615,5.844272136688232,-7.654360294342041]},{"name":"CSGBox3D18","rotation":[0.7774094939231873,0.0,0.0,0.6289948225021362],"translation":[1.8189606666564941,5.198971271514893,-6.735590934753418]},{"name":"CSGBox3D12","translation":[13.249853134155273,1.5318803787231445,-9.445257186889648]},{"name":"CSGBox3D13","translation":[7.818840026855469,1.5318803787231445,-11.055392265319824]},{"name":"CSGBox3D14","translation":[1.7603058815002441,1.7258504629135132,-9.692313194274902]},{"name":"CSGBox3D10","rotation":[0.0,0.7071067690849304,0.0,0.7071067690849304],"translation":[15.505241394042969,4.5279221534729,-11.184173583984375]},{"name":"CSGBox3D11","rotation":[0.0,0.7071067690849304,0.0,0.7071067690849304],"translation":[15.505241394042969,4.5279221534729,-15.26680850982666]}],"scene":0,"scenes":[{"nodes":[0]}]}