{"accessors":[{"bufferView":0,"componentType":5126,"count":1854,"max":[38.28084945678711,14.057828903198242,18.048559188842773],"min":[-19.264915466308594,-0.06702637672424316,-67.4655990600586],"normalized":false,"type":"VEC3"},{"bufferView":1,"componentType":5126,"count":1854,"max":[1.0,4.5779161155223846e-05,1.0,1.0],"min":[-1.0,-1.0,-1.0,-1.0],"normalized":false,"type":"VEC4"},{"bufferView":2,"componentType":5126,"count":1854,"max":[1.0,1.0,1.0],"min":[-1.0,-1.0,-1.0],"normalized":false,"type":"VEC3"},{"bufferView":3,"componentType":5126,"count":1854,"max":[1.0,1.0],"min":[0.0,0.0],"normalized":false,"type":"VEC2"},{"bufferView":4,"componentType":5123,"count":1854,"max":[1853],"min":[0],"normalized":false,"type":"SCALAR"}],"asset":{"generator":"Godot Engine v4.6.1.stable.official@14d19694e0c88a3f9e82d899a0400f27a24c176e","version":"2.0"},"bufferViews":[{"buffer":0,"byteLength":22248,"byteStride":12,"target":34962},{"buffer":0,"byteLength":29664,"byteOffset":22248,"byteStride":16,"target":34962},{"buffer":0,"byteLength":22248,"byteOffset":51912,"byteStride":12,"target":34962},{"buffer":0,"byteLength":14832,"byteOffset":74160,"byteStride":8,"target":34962},{"buffer":0,"byteLength":3708,"byteOffset":88992,"target":34963}],"buffers":[{"byteLength":92700,"uri":"tinadahan_greybox0.bin"}],"extensionsUsed":["GODOT_single_root"],"materials":[{}],"meshes":[{"name":"TinadahanGreybox2","primitives":[{"attributes":{"NORMAL":2,"POSITION":0,"TANGENT":1,"TEXCOORD_0":3},"indices":4,"material":0,"mode":4}]}],"nodes":[{"children":[1,2,3,4,5,6,7,8,9,10,11,12,13,14,15,16,17,18,19,20,21,22,23,24,25,26,27,28,29],"mesh":0,"name":"TinadahanGreybox2"},{"name":"CSGBox3D2","translation":[-0.41847991943359375,0.43297362327575684,-15.414670944213867]},{"name":"CSGBox3D3","translation":[7.749366760253906,1.2378864288330078,-8.348858833312988]},{"name":"CSGBox3D4","rotation":[0.0,-0.7071067690849304,0.0,0.7071067690849304],"translation":[18.279769897460938,1.2378864288330078,-12.752102851867676]},{"name":"CSGBox3D5","rotation":[0.0,-0.7071067690849304,0.0,0.7071067690849304],"translation":[2.931608200073242,2.456727981567383,-12.696377754211426]},{"name":"CSGBox3D19","rotation":[0.0,-0.7071067690849304,0.0,0.7071067690849304],"translation":[-2.0817532539367676,7.497955322265625,-13.339367866516113]},{"name":"CSGBox3D34","rotation":[0.0,-0.7071067690849304,0.0,0.7071067690849304],"translation":[-12.899542808532715,4.909485816955566,-12.143696784973145]},{"name":"CSGBox3D29","rotation":[0.0,-0.7071067690849304,0.0,0.7071067690849304],"translation":[32.40114212036133,2.715682029724121,-14.564347267150879]},{"name":"CSGBox3D30","rotation":[0.0,-0.7071067690849304,0.0,0.7071067690849304],"translation":[32.40114212036133,5.123198986053467,-28.847801208496094]},{"name":"CSGBox3D32","rotation":[0.0,-0.7071067690849304,0.0,0.7071067690849304],"translation":[31.820240020751953,6.709342956542969,-44.46484375]},{"name":"CSGBox3D33","rotation":[0.0,-0.7071067690849304,0.0,0.7071067690849304],"translation":[32.758724212646484,3.3456153869628906,-59.117069244384766]},{"name":"CSGBox3D31","rotation":[0.0,-0.7071067690849304,0.0,0.7071067690849304],"translation":[14.02120304107666,3.6511762142181396,-28.847801208496094]},{"name":"CSGBox3D6","rotation":[0.0,-0.7071067690849304,0.0,0.7071067690849304],"translation":[7.744229316711426,4.857452392578125,-13.32348346710205]},{"name":"CSGBox3D7","rotation":[0.0,-0.7071067690849304,0.0,0.7071067690849304],"translation":[17.222171783447266,2.456727981567383,-9.715924263000488]},{"name":"CSGBox3D17","rotation":[0.0,-0.7071067690849304,0.0,0.7071067690849304],"translation":[17.00092315673828,5.755639553070068,-9.564976692199707]},{"name":"CSGBox3D10","rotation":[0.0,-0.7071067690849304,0.0,0.7071067690849304],"translation":[14.476874351501465,6.193357467651367,-13.322754859924316]},{"name":"CSGBox3D18","rotation":[0.0,-0.7071067690849304,0.0,0.7071067690849304],"translation":[14.910313606262207,3.5914673805236816,-13.322754859924316]},{"name":"CSGBox3D11","rotation":[0.0,-0.7071067690849304,0.0,0.7071067690849304],"translation":[5.932869911193848,4.054254531860352,-9.426281929016113]},{"name":"CSGBox3D13","rotation":[0.0,-0.7071067690849304,0.0,0.7071067690849304],"translation":[5.932869911193848,7.273140907287598,-9.426281929016113]},{"name":"CSGBox3D16","rotation":[0.0,-0.7071067690849304,0.0,0.7071067690849304],"translation":[17.113468170166016,7.8772687911987305,-13.325807571411133]},{"name":"CSGBox3D14","rotation":[0.0,-0.7071067690849304,0.0,0.7071067690849304],"translation":[11.048429489135742,7.033627033233643,-9.63962173461914]},{"name":"CSGBox3D15","rotation":[0.0,-0.7071067690849304,0.0,0.7071067690849304],"translation":[14.242278099060059,7.033627033233643,-9.63962173461914]},{"name":"CSGBox3D12","rotation":[0.0,-0.7071067690849304,0.0,0.7071067690849304],"translation":[15.260533332824707,4.054254531860352,-12.634420394897461]},{"name":"CSGBox3D8","rotation":[0.0,-0.7071067690849304,0.0,0.7071067690849304],"translation":[17.222171783447266,2.456727981567383,-12.723727226257324]},{"name":"CSGBox3D9","rotation":[0.0,-0.7071067690849304,0.0,0.7071067690849304],"translation":[17.222171783447266,2.456727981567383,-16.946311950683594]},{"name":"CSGBox3D22","rotation":[0.0,-0.7071067690849304,0.0,0.7071067690849304],"translation":[14.80203914642334,2.456727981567383,-16.946311950683594]},{"name":"CSGBox3D20","translation":[6.927858352661133,0.3500000238418579,-2.3049557209014893]},{"name":"CSGBox3D21","rotation":[0.0,0.7071067690849304,0.0,0.7071067690849304],"translation":[23.3807430267334,0.3500000238418579,-24.708520889282227]},{"name":"CSGBox3D23","scale":[1.0,0.5011340379714966,1.0],"translation":[0.1281280517578125,0.45000001788139343,-7.413853645324707]},{"name":"CSGBox3D24","rotation":[0.0,0.7071067690849304,0.0,0.7071067690849304],"scale":[1.0,0.5011340379714966,1.0],"translation":[18.270282745361328,0.45000001788139343,-15.41161060333252]}],"scene":0,"scenes":[{"nodes":[0]}]}