{"accessors":[{"bufferView":0,"componentType":5126,"count":561,"max":[21.899993896484375,0.00732421875,2.7011756896972656],"min":[-22.620681762695313,-1.1644287109375,-31.062820434570313],"normalized":false,"type":"VEC3"},{"bufferView":1,"componentType":5126,"count":561,"max":[6.103888154029846e-05,0.0,7.630093023180962e-05,-1.0],"min":[-1.0,-1.0,-1.0,-1.0],"normalized":false,"type":"VEC4"},{"bufferView":2,"componentType":5126,"count":561,"max":[1.0,1.0,1.0],"min":[-1.0,-1.0,-1.0],"normalized":false,"type":"VEC3"},{"bufferView":3,"componentType":5126,"count":561,"max":[1.0,1.0],"min":[0.0,0.0],"normalized":false,"type":"VEC2"},{"bufferView":4,"componentType":5123,"count":561,"max":[560],"min":[0],"normalized":false,"type":"SCALAR"},{"bufferView":5,"componentType":5126,"count":1701,"max":[21.493135452270508,9.517265319824219,2.73004150390625],"min":[-23.04123306274414,-7.293490409851074,-7.730106830596924],"normalized":false,"type":"VEC3"},{"bufferView":6,"componentType":5126,"count":1701,"max":[0.20417124032974243,5.416079511633143e-05,1.0,1.0],"min":[-1.0,-1.0,-1.0,-1.0],"normalized":false,"type":"VEC4"},{"bufferView":7,"componentType":5126,"count":1701,"max":[1.0,1.0,1.0],"min":[-1.0,-1.0,-1.0],"normalized":false,"type":"VEC3"},{"bufferView":8,"componentType":5126,"count":1701,"max":[1.0,1.0],"min":[0.0,0.0],"normalized":false,"type":"VEC2"},{"bufferView":9,"componentType":5123,"count":1701,"max":[1700],"min":[0],"normalized":false,"type":"SCALAR"},{"bufferView":10,"componentType":5126,"count":24,"max":[-3.706070899963379,0.4001121520996094,-0.5634921789169312],"min":[-7.135634899139404,0.00732421875,-2.3924717903137207],"normalized":false,"type":"VEC3"},{"bufferView":11,"componentType":5126,"count":24,"max":[0.0,0.0,7.630093023180962e-05,-1.0],"min":[-1.0,-1.0,-1.0,-1.0],"normalized":false,"type":"VEC4"},{"bufferView":12,"componentType":5126,"count":24,"max":[1.0,1.0,1.0],"min":[-1.5259254723787308e-05,-1.5259254723787308e-05,-1.0],"normalized":false,"type":"VEC3"},{"bufferView":13,"componentType":5126,"count":24,"max":[1.0,1.0],"min":[0.0,0.0],"normalized":false,"type":"VEC2"},{"bufferView":14,"componentType":5121,"count":24,"max":[23],"min":[0],"normalized":false,"type":"SCALAR"},{"bufferView":15,"componentType":5126,"count":24,"max":[-6.645184516906738,1.6810051202774048,2.1115882396698],"min":[-7.135634899139404,0.00732421875,0.6487586498260498],"normalized":false,"type":"VEC3"},{"bufferView":16,"componentType":5126,"count":24,"max":[0.0,0.0,7.630093023180962e-05,-1.0],"min":[-1.0,-1.0,-1.0,-1.0],"normalized":false,"type":"VEC4"},{"bufferView":17,"componentType":5126,"count":24,"max":[1.0,1.0,1.0],"min":[-1.5259254723787308e-05,-1.5259254723787308e-05,-1.0],"normalized":false,"type":"VEC3"},{"bufferView":18,"componentType":5126,"count":24,"max":[1.0,1.0],"min":[0.0,0.0],"normalized":false,"type":"VEC2"},{"bufferView":19,"componentType":5126,"count":24,"max":[-0.6375539302825928,1.6810051202774048,2.137453556060791],"min":[-1.125260829925537,0.00732421875,0.6746240854263306],"normalized":false,"type":"VEC3"},{"bufferView":20,"componentType":5126,"count":24,"max":[0.0,1.0,1.0],"min":[-1.0,-1.5259254723787308e-05,-1.0],"normalized":false,"type":"VEC3"},{"bufferView":21,"componentType":5126,"count":24,"max":[1.0,1.0],"min":[0.0,0.0],"normalized":false,"type":"VEC2"},{"bufferView":22,"componentType":5126,"count":36,"max":[-0.758370041847229,0.8458114862442017,-1.7483904361724854],"min":[-1.4277597665786743,0.022330880165100098,-2.4251177310943604],"normalized":false,"type":"VEC3"},{"bufferView":23,"componentType":5126,"count":36,"max":[0.0,0.0,7.630093023180962e-05,-1.0],"min":[-1.0,-1.0,-1.0,-1.0],"normalized":false,"type":"VEC4"},{"bufferView":24,"componentType":5126,"count":36,"max":[1.0,1.0,1.0],"min":[-1.0,-1.0,-1.0],"normalized":false,"type":"VEC3"},{"bufferView":25,"componentType":5126,"count":36,"max":[1.0,1.0],"min":[0.0,0.0],"normalized":false,"type":"VEC2"},{"bufferView":26,"componentType":5121,"count":36,"max":[35],"min":[0],"normalized":false,"type":"SCALAR"},{"bufferView":27,"componentType":5126,"count":24,"max":[-0.6375539302825928,2.5907394886016846,-2.0587587356567383],"min":[-3.3774514198303223,1.8559386730194092,-2.504671096801758],"normalized":false,"type":"VEC3"},{"bufferView":28,"componentType":5126,"count":24,"max":[0.0,0.0,7.630093023180962e-05,-1.0],"min":[-1.0,-1.0,-1.0,-1.0],"normalized":false,"type":"VEC4"},{"bufferView":29,"componentType":5126,"count":24,"max":[0.0,1.0,1.0],"min":[-1.0,-1.0,-1.5259021893143654e-05],"normalized":false,"type":"VEC3"},{"bufferView":30,"componentType":5126,"count":24,"max":[1.0,1.0],"min":[0.0,0.0],"normalized":false,"type":"VEC2"},{"bufferView":31,"componentType":5126,"count":36,"max":[-1.973649024963379,0.7550349235534668,-1.4234672784805298],"min":[-3.6898632049560547,0.020234107971191406,-2.4817214012145996],"normalized":false,"type":"VEC3"},{"bufferView":32,"componentType":5126,"count":36,"max":[0.0,0.0,7.630093023180962e-05,-1.0],"min":[-1.0,-1.0,-1.0,-1.0],"normalized":false,"type":"VEC4"},{"bufferView":33,"componentType":5126,"count":36,"max":[1.0,1.0,1.0],"min":[-1.0,-1.0,-1.0],"normalized":false,"type":"VEC3"},{"bufferView":34,"componentType":5126,"count":36,"max":[1.0,1.0],"min":[0.0,0.0],"normalized":false,"type":"VEC2"}],"asset":{"generator":"Godot Engine v4.6.1.stable.official@14d19694e0c88a3f9e82d899a0400f27a24c176e","version":"2.0"},"bufferViews":[{"buffer":0,"byteLength":6732,"byteStride":12,"target":34962},{"buffer":0,"byteLength":8976,"byteOffset":6732,"byteStride":16,"target":34962},{"buffer":0,"byteLength":6732,"byteOffset":15708,"byteStride":12,"target":34962},{"buffer":0,"byteLength":4488,"byteOffset":22440,"byteStride":8,"target":34962},{"buffer":0,"byteLength":1122,"byteOffset":26928,"target":34963},{"buffer":0,"byteLength":20412,"byteOffset":28052,"byteStride":12,"target":34962},{"buffer":0,"byteLength":27216,"byteOffset":48464,"byteStride":16,"target":34962},{"buffer":0,"byteLength":20412,"byteOffset":75680,"byteStride":12,"target":34962},{"buffer":0,"byteLength":13608,"byteOffset":96092,"byteStride":8,"target":34962},{"buffer":0,"byteLength":3402,"byteOffset":109700,"target":34963},{"buffer":0,"byteLength":288,"byteOffset":113104,"byteStride":12,"target":34962},{"buffer":0,"byteLength":384,"byteOffset":113392,"byteStride":16,"target":34962},{"buffer":0,"byteLength":288,"byteOffset":113776,"byteStride":12,"target":34962},{"buffer":0,"byteLength":192,"byteOffset":114064,"byteStride":8,"target":34962},{"buffer":0,"byteLength":24,"byteOffset":114256,"target":34963},{"buffer":0,"byteLength":288,"byteOffset":114280,"byteStride":12,"target":34962},{"buffer":0,"byteLength":384,"byteOffset":114568,"byteStride":16,"target":34962},{"buffer":0,"byteLength":288,"byteOffset":114952,"byteStride":12,"target":34962},{"buffer":0,"byteLength":192,"byteOffset":115240,"byteStride":8,"target":34962},{"buffer":0,"byteLength":288,"byteOffset":115432,"byteStride":12,"target":34962},{"buffer":0,"byteLength":288,"byteOffset":115720,"byteStride":12,"target":34962},{"buffer":0,"byteLength":192,"byteOffset":116008,"byteStride":8,"target":34962},{"buffer":0,"byteLength":432,"byteOffset":116200,"byteStride":12,"target":34962},{"buffer":0,"byteLength":576,"byteOffset":116632,"byteStride":16,"target":34962},{"buffer":0,"byteLength":432,"byteOffset":117208,"byteStride":12,"target":34962},{"buffer":0,"byteLength":288,"byteOffset":117640,"byteStride":8,"target":34962},{"buffer":0,"byteLength":36,"byteOffset":117928,"target":34963},{"buffer":0,"byteLength":288,"byteOffset":117964,"byteStride":12,"target":34962},{"buffer":0,"byteLength":384,"byteOffset":118252,"byteStride":16,"target":34962},{"buffer":0,"byteLength":288,"byteOffset":118636,"byteStride":12,"target":34962},{"buffer":0,"byteLength":192,"byteOffset":118924,"byteStride":8,"target":34962},{"buffer":0,"byteLength":432,"byteOffset":119116,"byteStride":12,"target":34962},{"buffer":0,"byteLength":576,"byteOffset":119548,"byteStride":16,"target":34962},{"buffer":0,"byteLength":432,"byteOffset":120124,"byteStride":12,"target":34962},{"buffer":0,"byteLength":288,"byteOffset":120556,"byteStride":8,"target":34962}],"buffers":[{"byteLength":120844,"uri":"house_10.bin"}],"extensionsUsed":["GODOT_single_root"],"materials":[{"pbrMetallicRoughness":{"baseColorFactor":[1.0,1.0,1.0,1.0],"metallicFactor":0.0,"roughnessFactor":1.0}},{},{"pbrMetallicRoughness":{"baseColorFactor":[0.807345986366272,0.24068063497543335,0.42096662521362305,1.0],"metallicFactor":0.7400000095367432,"roughnessFactor":1.0}},{"pbrMetallicRoughness":{"baseColorFactor":[0.38132601976394653,0.11697067320346832,0.019382357597351074,1.0],"metallicFactor":0.0,"roughnessFactor":1.0}},{"pbrMetallicRoughness":{"baseColorFactor":[0.38132601976394653,0.11697067320346832,0.019382357597351074,1.0],"metallicFactor":0.0,"roughnessFactor":1.0}},{"pbrMetallicRoughness":{"baseColorFactor":[0.26202183961868286,0.30919724702835083,0.955104649066925,1.0],"metallicFactor":0.0,"roughnessFactor":1.0}},{"pbrMetallicRoughness":{"baseColorFactor":[0.6559306383132935,0.22674353420734406,0.009960859082639217,1.0],"metallicFactor":0.0,"roughnessFactor":1.0}},{"pbrMetallicRoughness":{"baseColorFactor":[0.38005632162094116,0.11583814024925232,0.019492074847221375,1.0],"metallicFactor":0.0,"roughnessFactor":1.0}}],"meshes":[{"name":"Greyboxes2","primitives":[{"attributes":{"NORMAL":2,"POSITION":0,"TANGENT":1,"TEXCOORD_0":3},"indices":4,"material":0,"mode":4},{"attributes":{"NORMAL":7,"POSITION":5,"TANGENT":6,"TEXCOORD_0":8},"indices":9,"material":1,"mode":4},{"attributes":{"NORMAL":12,"POSITION":10,"TANGENT":11,"TEXCOORD_0":13},"indices":14,"material":2,"mode":4},{"attributes":{"NORMAL":17,"POSITION":15,"TANGENT":16,"TEXCOORD_0":18},"indices":14,"material":3,"mode":4},{"attributes":{"NORMAL":20,"POSITION":19,"TANGENT":16,"TEXCOORD_0":21},"indices":14,"material":4,"mode":4},{"attributes":{"NORMAL":24,"POSITION":22,"TANGENT":23,"TEXCOORD_0":25},"indices":26,"material":5,"mode":4},{"attributes":{"NORMAL":29,"POSITION":27,"TANGENT":28,"TEXCOORD_0":30},"indices":14,"material":6,"mode":4},{"attributes":{"NORMAL":33,"POSITION":31,"TANGENT":32,"TEXCOORD_0":34},"indices":26,"material":7,"mode":4}]}],"nodes":[{"children":[1],"name":"House1"},{"children":[2,3,4,5,6,7,8,9,12,13,14,15,16,17,18,21,24,27,31,32,33,34,35,36,37,38,39,40,41,42,43,44,45,46,47,48,49,50,51],"mesh":0,"name":"Greyboxes2"},{"name":"floor","translation":[-0.36034393310546875,-0.57855224609375,-14.180822372436523]},{"name":"ceiling","translation":[-0.044872283935546875,3.0803921222686768,-2.457183837890625]},{"name":"ceiling2","translation":[-0.044872283935546875,6.424633026123047,1.899444580078125]},{"name":"ceiling5","translation":[-0.7766952514648438,-4.200858116149902,1.899444580078125]},{"name":"ceiling3","translation":[-14.59813117980957,4.643556594848633,2.0459442138671875]},{"name":"ceiling4","translation":[14.320747375488281,4.643556594848633,2.0459442138671875]},{"name":"CSGBox3D2","rotation":[0.0,0.7071067690849304,0.0,0.7071067690849304],"translation":[-3.9055585861206055,1.4292768239974976,-2.5731523036956787]},{"children":[10,11],"name":"CSGCombiner3D"},{"name":"CSGBox3D","translation":[-7.242080211639404,1.4956496953964233,-0.13889312744140625]},{"name":"CSGBox3D5","translation":[-7.330653667449951,1.7038885354995728,-0.8596229553222656]},{"name":"CSGBox3D3","translation":[-5.445115089416504,0.16103744506835938,-1.4779819250106812]},{"name":"CSGBox3D32","translation":[-6.914671897888184,0.8183456659317017,1.3801734447479248]},{"name":"CSGBox3D22","translation":[-0.8587422370910645,0.8183456659317017,1.4060388803482056]},{"name":"CSGBox3D23","translation":[-1.0930649042129517,0.4340711832046509,-2.086754083633423]},{"name":"CSGBox3D24","translation":[-1.9920198917388916,2.223339080810547,-2.296360969543457]},{"name":"CSGBox3D25","translation":[-2.831756114959717,0.3876345157623291,-1.9525943994522095]},{"children":[19,20],"name":"CSGCombiner3D2"},{"name":"CSGBox3D33","translation":[-0.531053900718689,1.4069976806640625,0.036502838134765625]},{"name":"CSGBox3D4","translation":[-0.531053900718689,1.1313570737838745,-1.022601842880249]},{"children":[22,23],"name":"CSGCombiner3D3","translation":[0.0,0.0,-4.995271682739258]},{"name":"CSGBox3D6","translation":[-7.242080211639404,1.5090774297714233,-0.13889312744140625]},{"name":"CSGBox3D52","translation":[-7.330653667449951,1.7038885354995728,-0.8596229553222656]},{"children":[25,26],"name":"CSGCombiner3D4","translation":[0.0,0.0,-4.995271682739258]},{"name":"CSGBox3D34","translation":[-0.531053900718689,1.4069976806640625,-0.13889312744140625]},{"name":"CSGBox3D42","translation":[-0.531053900718689,1.1313570737838745,0.7176456451416016]},{"children":[28,29,30],"name":"CSGCombiner3D5"},{"name":"CSGBox3D35","rotation":[0.0,0.7071067690849304,0.0,0.7071067690849304],"translation":[-0.017862558364868164,1.4292768239974976,-7.615024566650391]},{"name":"CSGBox3D43","rotation":[0.0,0.7071067690849304,0.0,0.7071067690849304],"translation":[1.0007206201553345,1.1313570737838745,-7.649105548858643]},{"name":"CSGBox3D53","rotation":[0.0,0.7071067690849304,0.0,0.7071067690849304],"translation":[5.973705291748047,1.1313570737838745,-7.649105548858643]},{"name":"CSGBox3D44","translation":[2.332000970840454,0.9666595458984375,-7.128270149230957]},{"name":"CSGBox3D54","translation":[3.8491873741149902,0.5368480682373047,-7.275093078613281]},{"name":"CSGBox3D7","translation":[3.5792651176452637,0.4476879835128784,-4.135317802429199]},{"name":"CSGBox3D16","translation":[3.0571582317352295,0.2758459448814392,-3.2094058990478516]},{"name":"CSGBox3D17","translation":[3.9562158584594727,0.2758459448814392,-3.2094058990478516]},{"name":"CSGBox3D18","translation":[4.988638877868652,0.2758459448814392,-3.9910824298858643]},{"name":"CSGBox3D21","translation":[2.1253037452697754,0.2758459448814392,-3.9910824298858643]},{"name":"CSGBox3D19","translation":[4.159252643585205,0.2758459448814392,-5.041126251220703]},{"name":"CSGBox3D20","translation":[3.2263240814208984,0.2758459448814392,-5.041126251220703]},{"name":"CSGBox3D13","rotation":[0.0,0.7759473919868469,0.0,0.6307976841926575],"translation":[0.18133556842803955,0.4322955310344696,0.6750158071517944]},{"name":"CSGBox3D26","rotation":[0.0,0.7228586077690125,0.0,0.6909959316253662],"translation":[-0.222428560256958,0.845866858959198,2.0025429725646973]},{"name":"CSGBox3D27","rotation":[0.0,0.7228586077690125,0.0,0.6909959316253662],"translation":[-0.13860660791397095,1.2009485960006714,-2.1529650688171387]},{"name":"CSGBox3D12","translation":[3.5792651176452637,0.35370951890945435,1.8297368288040161]},{"name":"CSGBox3D15","translation":[5.42190408706665,0.35370951890945435,1.8297368288040161]},{"name":"CSGBox3D14","translation":[6.838685035705566,1.0904979705810547,1.4611912965774536]},{"name":"CSGBox3D10","translation":[6.627040863037109,0.4476879835128784,-0.17444515228271484]},{"name":"CSGBox3D11","translation":[6.705273628234863,1.3173084259033203,-0.14122295379638672]},{"name":"CSGBox3D8","translation":[-0.18015426397323608,0.4476879835128784,-6.634827613830566]},{"name":"CSGBox3D9","translation":[-0.26001065969467163,1.2354202270507813,-6.66610050201416]},{"name":"CSGBox3D62","translation":[3.8491873741149902,2.4934630393981934,-7.275093078613281]},{"children":[52,53],"name":"CSGCombiner3D6"},{"name":"CSGBox3D36","translation":[7.141669750213623,1.4292768239974976,-2.583822727203369]},{"name":"CSGBox3D55","translation":[7.169615745544434,1.7038885354995728,-4.824953079223633]}],"scene":0,"scenes":[{"nodes":[0]}]}